<?xml version="1.0" standalone="no"?>
<!DOCTYPE svg PUBLIC "-//W3C//DTD SVG 20010904//EN"
 "http://www.w3.org/TR/2001/REC-SVG-20010904/DTD/svg10.dtd">
<svg version="1.0" xmlns="http://www.w3.org/2000/svg"
 width="1298.000000pt" height="285.000000pt" viewBox="0 0 1298.000000 285.000000"
 preserveAspectRatio="xMidYMid meet">

<g transform="translate(0.000000,285.000000) scale(0.100000,-0.100000)"
fill="#000000" stroke="none">
<path d="M9040 2413 c-240 -21 -397 -71 -565 -178 -27 -17 -53 -33 -57 -34 -3
-1 -33 -27 -65 -57 -32 -30 -70 -62 -85 -72 -16 -9 -28 -21 -28 -27 0 -5 -23
-35 -52 -65 -28 -30 -49 -55 -48 -55 2 0 -9 -19 -25 -42 -15 -24 -32 -43 -36
-43 -5 0 -8 -3 -7 -7 2 -5 -16 -46 -38 -93 -108 -222 -144 -430 -114 -657 17
-121 65 -255 122 -335 11 -16 17 -28 14 -28 -2 0 8 -12 22 -28 15 -15 43 -45
63 -67 19 -22 60 -56 90 -77 283 -190 634 -216 987 -73 45 18 82 30 82 27 0
-4 4 -2 8 4 7 10 152 106 152 101 0 -6 103 87 144 128 21 22 66 74 99 115 33
41 64 78 69 81 5 3 8 8 7 10 -3 4 60 120 70 129 3 3 7 12 9 20 2 8 19 56 37
106 51 135 69 260 62 424 -6 156 -26 240 -87 361 -22 43 -39 81 -38 83 2 2
-42 48 -97 102 -85 85 -115 107 -200 150 -65 33 -133 59 -190 72 -87 19 -234
32 -305 25z m131 -469 c275 -82 370 -432 207 -764 -47 -95 -179 -226 -278
-273 -95 -46 -176 -67 -260 -67 -63 0 -179 23 -190 38 -3 4 -11 8 -19 10 -44
9 -128 97 -166 171 -79 158 -72 346 22 541 38 79 59 108 127 175 44 44 106 94
136 110 130 70 303 94 421 59z"/>
<path d="M12365 2410 c-85 -22 -164 -86 -215 -174 -28 -49 -273 -645 -403
-980 l-62 -158 -5 418 c-5 400 -7 422 -28 478 -58 157 -160 226 -317 214 -133
-11 -264 -109 -348 -260 -38 -66 -219 -459 -330 -713 l-66 -150 -3 565 c-3
645 3 600 -96 692 -39 37 -60 48 -108 58 -57 12 -231 8 -268 -6 -14 -5 -16
-30 -15 -173 1 -373 29 -1589 37 -1627 22 -102 71 -162 170 -207 37 -17 67
-21 142 -22 83 0 102 3 153 27 73 34 184 140 231 220 38 64 146 301 286 626
l87 203 6 -227 c4 -125 7 -295 7 -378 0 -168 15 -256 54 -334 93 -184 409
-188 574 -7 26 28 66 85 89 126 49 87 777 1707 785 1748 6 32 -269 64 -357 41z"/>
<path d="M3955 2403 c-230 -29 -475 -121 -673 -254 -95 -64 -299 -213 -312
-229 -6 -6 -178 -146 -252 -203 l-48 -38 -178 169 c-214 205 -311 284 -442
363 -263 157 -517 208 -795 160 -197 -34 -350 -93 -505 -196 -73 -49 -210
-171 -210 -187 0 -7 4 -7 13 -1 16 13 180 40 327 54 126 12 301 1 418 -26 35
-8 80 -15 102 -15 54 0 232 -37 293 -61 144 -57 301 -175 510 -384 146 -147
170 -175 149 -175 -5 0 -34 -21 -64 -47 -169 -145 -233 -197 -328 -264 -120
-86 -218 -147 -305 -189 -75 -37 -262 -79 -381 -87 -77 -5 -99 -3 -155 17
-138 49 -210 95 -283 180 -107 125 -151 315 -110 473 24 92 98 229 157 290
104 107 196 163 351 212 l100 32 -55 7 c-241 30 -440 25 -643 -18 -35 -7 -75
-12 -89 -10 -22 2 -35 -10 -85 -80 -142 -194 -218 -470 -191 -689 11 -86 54
-246 82 -302 36 -72 105 -170 152 -215 26 -25 54 -52 63 -61 68 -64 243 -150
363 -178 318 -74 610 -32 939 135 189 96 402 248 691 496 l57 48 129 -127
c267 -263 382 -353 575 -443 140 -65 251 -92 403 -95 261 -6 498 61 713 199
67 43 210 170 182 161 -35 -11 -321 -35 -414 -35 -55 0 -146 7 -200 15 -55 8
-128 15 -163 15 -69 0 -206 34 -307 77 -108 45 -212 122 -410 303 -72 66 -206
202 -205 208 0 4 34 34 76 67 41 33 85 69 97 80 131 121 372 286 516 353 119
56 186 75 344 97 61 9 172 26 246 38 114 19 174 22 382 22 l246 -1 -39 48
c-97 115 -198 184 -347 234 -158 53 -345 75 -487 57z m-3425 -457 c0 -2 -8
-10 -17 -17 -16 -13 -17 -12 -4 4 13 16 21 21 21 13z m-157 -263 c-19 -56 -43
-103 -43 -85 0 7 8 32 19 55 10 23 21 50 24 60 4 9 8 17 11 17 3 0 -2 -21 -11
-47z m2355 -71 c20 -30 11 -28 -19 4 -13 15 -18 25 -10 22 8 -2 21 -14 29 -26z
m-1965 -7 c-3 -9 -8 -14 -10 -11 -3 3 -2 9 2 15 9 16 15 13 8 -4z m2032 -65
c21 -22 37 -40 34 -40 -3 0 -23 18 -44 40 -21 22 -37 40 -34 40 3 0 23 -18 44
-40z m-2488 -52 c-3 -8 -6 -5 -6 6 -1 11 2 17 5 13 3 -3 4 -12 1 -19z m2563
-30 l23 -33 -26 24 c-15 14 -27 28 -27 33 0 14 5 9 30 -24z m-2573 -30 c-3 -7
-5 -2 -5 12 0 14 2 19 5 13 2 -7 2 -19 0 -25z m403 -28 c0 -5 -4 -10 -10 -10
-5 0 -10 5 -10 10 0 6 5 10 10 10 6 0 10 -4 10 -10z m1825 -169 c-6 -5 -155
143 -155 154 0 4 36 -27 80 -70 44 -43 77 -81 75 -84z m-1825 124 c0 -8 -4
-15 -10 -15 -5 0 -10 7 -10 15 0 8 5 15 10 15 6 0 10 -7 10 -15z m-413 -77
c-3 -8 -6 -5 -6 6 -1 11 2 17 5 13 3 -3 4 -12 1 -19z m43 -199 c0 -5 -4 -9
-10 -9 -5 0 -10 7 -10 16 0 8 5 12 10 9 6 -3 10 -10 10 -16z m20 -76 c7 -21
18 -51 25 -68 30 -74 34 -85 30 -85 -13 0 -74 151 -75 183 0 18 9 4 20 -30z
m470 -28 c0 -5 -11 3 -25 19 -14 16 -25 34 -25 40 1 13 50 -45 50 -59z m114
-104 c-2 -3 -12 3 -22 13 -16 17 -16 18 5 5 12 -7 20 -15 17 -18z m-494 -61
c0 -5 9 -19 20 -30 11 -11 16 -20 11 -20 -5 0 -19 14 -31 30 -12 17 -17 30
-11 30 6 0 11 -4 11 -10z m684 -18 c11 -18 -183 -45 -322 -46 -176 -1 -312 4
-312 13 0 3 100 6 222 6 123 0 243 3 268 7 95 14 113 18 118 23 8 8 20 6 26
-3z"/>
<path d="M5915 2379 c-349 -28 -533 -179 -610 -502 -54 -225 -303 -1473 -295
-1480 4 -5 88 -7 186 -5 208 4 240 14 312 92 56 61 67 88 103 259 24 110 79
400 79 415 0 1 171 2 380 2 l380 0 5 23 c9 38 85 408 85 413 0 2 -169 4 -375
4 -328 0 -375 2 -375 15 0 30 41 197 54 223 8 15 26 38 41 52 l27 25 378 5
c208 3 382 8 386 12 10 11 95 439 88 449 -6 11 -710 9 -849 -2z"/>
<path d="M6910 2248 c-17 -73 -60 -270 -95 -438 -35 -168 -89 -424 -119 -570
-31 -145 -61 -303 -67 -349 -14 -105 -7 -232 15 -286 37 -87 147 -163 268
-185 106 -19 327 -30 584 -30 242 0 263 1 268 18 3 9 12 55 21 102 8 47 27
138 41 203 15 65 24 120 21 123 -3 3 -144 6 -315 8 -280 2 -312 4 -337 20 -27
17 -27 21 -22 80 3 33 53 284 110 556 58 272 107 520 111 550 3 32 0 78 -7
110 -36 150 -148 220 -354 220 l-91 0 -32 -132z"/>
</g>
</svg>
