<?xml version="1.0" standalone="no"?>
<!DOCTYPE svg PUBLIC "-//W3C//DTD SVG 20010904//EN"
 "http://www.w3.org/TR/2001/REC-SVG-20010904/DTD/svg10.dtd">
<svg version="1.0" xmlns="http://www.w3.org/2000/svg"
 width="1298.000000pt" height="285.000000pt" viewBox="0 0 1298.000000 285.000000"
 preserveAspectRatio="xMidYMid meet">
<metadata>
Created by potrace 1.15, written by Peter Selinger 2001-2017
</metadata>
<g transform="translate(0.000000,285.000000) scale(0.100000,-0.100000)"
fill="#000000" stroke="none">
<path d="M4136 2422 c-2 -4 -48 -7 -100 -6 -53 0 -96 -2 -96 -6 0 -4 -19 -6
-42 -5 -24 1 -48 -2 -54 -7 -7 -5 -26 -10 -43 -11 -17 -1 -31 -6 -31 -11 0 -5
-3 -7 -6 -3 -3 3 -30 -3 -60 -13 -30 -11 -54 -17 -54 -14 0 3 -10 -2 -22 -10
-12 -9 -32 -16 -44 -16 -12 0 -24 -3 -26 -8 -1 -4 -46 -29 -98 -55 -103 -50
-111 -55 -182 -105 -27 -19 -48 -31 -48 -29 0 3 -15 -8 -34 -25 -36 -32 -69
-53 -98 -64 -10 -3 -18 -10 -18 -14 0 -4 -21 -24 -47 -44 -60 -46 -104 -82
-153 -123 -20 -18 -43 -33 -49 -33 -6 0 -11 -4 -11 -9 0 -5 -35 -36 -78 -69
l-77 -60 -165 161 c-242 236 -378 340 -563 431 -246 121 -452 145 -742 89
-365 -70 -685 -315 -835 -637 -79 -171 -110 -351 -90 -521 14 -117 67 -288
109 -350 17 -25 31 -48 31 -50 0 -15 98 -128 150 -173 119 -105 369 -208 516
-214 19 -1 37 -5 40 -10 3 -5 12 -4 20 3 11 9 18 9 26 1 15 -15 124 -16 133
-2 9 14 45 12 45 -2 0 -10 2 -10 8 -1 4 6 30 14 57 18 53 8 129 25 210 48 195
56 517 244 736 431 19 17 46 40 60 51 78 63 121 98 164 130 l47 37 111 -109
c61 -59 118 -115 127 -124 8 -9 53 -50 100 -91 191 -166 405 -282 588 -318 44
-9 62 -17 62 -28 0 -13 3 -12 16 4 10 13 17 15 20 7 3 -7 12 -9 21 -6 8 3 19
0 25 -8 7 -11 11 -11 15 -1 3 8 27 12 68 12 41 0 65 -4 69 -12 3 -10 9 -8 19
5 16 19 37 23 37 7 0 -7 6 -7 18 -1 9 6 59 19 110 31 163 35 341 117 475 219
95 72 151 129 115 116 -30 -10 -319 -35 -410 -35 -55 0 -147 6 -206 14 -59 8
-150 20 -202 26 -107 12 -248 56 -330 102 -61 34 -173 117 -235 174 -22 20
-58 52 -80 71 -22 20 -84 78 -139 131 l-98 96 28 20 c16 12 38 30 49 41 12 11
50 44 85 73 36 29 85 70 110 91 68 58 127 102 207 154 86 56 263 151 263 142
0 -4 6 -3 13 3 15 12 95 35 120 34 9 0 17 4 17 10 0 6 11 8 25 6 14 -3 25 -2
25 2 0 4 16 6 35 4 19 -1 35 2 35 7 0 5 16 7 35 4 21 -2 35 0 35 7 0 6 9 8 22
5 12 -4 27 -2 32 2 6 5 70 20 141 33 114 20 161 23 382 23 l251 0 -20 30 c-76
110 -253 229 -405 271 -35 9 -63 21 -63 25 0 4 -9 6 -20 4 -11 -2 -20 0 -20 5
0 4 -11 7 -25 5 -14 -1 -25 1 -25 6 0 4 -16 6 -35 4 -20 -3 -35 0 -35 5 0 12
-37 14 -44 2z m-2891 -398 c44 -8 130 -21 190 -30 222 -30 330 -73 503 -202
111 -83 437 -402 409 -402 -9 0 -17 -4 -17 -8 0 -4 -41 -44 -92 -88 -108 -93
-178 -147 -178 -139 0 3 -10 -6 -22 -20 -30 -34 -137 -108 -275 -190 -109 -64
-196 -101 -214 -89 -5 3 -9 1 -9 -5 0 -10 -6 -11 -67 -12 -18 -1 -33 -5 -33
-9 0 -8 -17 -11 -72 -12 -21 -1 -38 -5 -38 -10 0 -5 -8 -7 -19 -3 -10 3 -31 0
-46 -7 -22 -10 -28 -9 -36 3 -8 12 -10 12 -19 -1 -8 -13 -18 -12 -77 9 -138
49 -195 82 -273 162 -76 77 -84 92 -131 236 -23 71 -19 206 10 299 20 69 94
191 149 248 112 114 199 167 353 213 l94 28 -45 7 c-64 9 -236 23 -295 23 -85
0 -248 -17 -340 -35 -111 -22 -121 -22 -105 -7 15 14 151 40 305 57 99 11 284
3 390 -16z"/>
<path d="M8915 2409 c-309 -42 -598 -229 -801 -517 -215 -305 -270 -723 -139
-1037 43 -103 142 -228 238 -301 74 -56 217 -125 307 -149 84 -22 320 -31 420
-16 238 36 457 142 628 305 196 187 327 409 378 646 28 124 25 365 -4 475 -75
280 -283 492 -562 572 -70 21 -113 25 -240 28 -85 2 -186 -1 -225 -6z m235
-462 c8 -2 24 -7 35 -11 11 -5 32 -12 48 -18 15 -6 27 -14 27 -19 0 -5 7 -9
15 -9 8 0 15 -4 15 -9 0 -6 12 -16 28 -24 15 -7 26 -19 25 -25 -2 -6 6 -16 17
-22 11 -6 20 -17 20 -25 0 -7 7 -21 16 -29 8 -9 12 -16 7 -16 -4 0 -2 -4 5 -8
7 -5 14 -17 16 -28 3 -10 12 -46 20 -79 22 -83 20 -149 -8 -285 -11 -50 -74
-192 -88 -198 -5 -2 -8 -10 -8 -17 0 -7 -7 -15 -15 -19 -8 -3 -15 -10 -15 -15
0 -6 -25 -35 -56 -64 -80 -77 -92 -86 -98 -79 -3 3 -6 0 -6 -6 0 -7 -7 -12
-15 -12 -8 0 -15 -5 -15 -11 0 -5 -4 -7 -10 -4 -5 3 -10 1 -10 -6 0 -7 -3 -9
-7 -6 -3 4 -21 -3 -40 -14 -18 -11 -33 -18 -33 -14 0 3 -6 3 -12 -2 -7 -4 -17
-9 -23 -10 -5 -1 -28 -7 -50 -12 -22 -6 -65 -11 -95 -11 -47 0 -71 4 -145 23
-5 2 -20 8 -31 15 -12 6 -24 8 -28 5 -3 -3 -6 -1 -6 5 0 6 -10 14 -22 18 -25
8 -98 78 -98 94 0 6 -4 10 -10 10 -5 0 -10 5 -10 11 0 6 -7 17 -15 26 -8 8
-13 19 -10 24 4 5 1 9 -6 9 -7 0 -9 3 -6 7 4 3 2 11 -3 18 -5 6 -11 20 -13 31
-2 10 -8 28 -13 39 -11 23 -11 176 -1 220 4 17 9 41 12 55 6 26 13 53 14 58 1
1 1 5 2 10 1 4 6 16 12 27 6 11 12 22 12 25 4 23 18 50 26 50 6 0 7 5 4 10 -3
6 -1 10 4 10 6 0 11 7 11 15 0 8 5 15 11 15 5 0 7 5 4 10 -3 6 -1 10 5 10 6 0
14 8 17 17 8 20 111 123 123 123 4 0 10 7 14 15 3 8 12 15 21 15 8 0 15 5 15
11 0 5 5 7 10 4 6 -3 10 -1 10 5 0 6 5 8 10 5 6 -3 10 -1 10 6 0 7 3 9 7 6 3
-4 16 -1 27 6 21 13 92 37 130 44 11 2 22 6 25 9 6 6 165 -1 191 -9z"/>
<path d="M12336 2403 c-61 -21 -145 -96 -185 -167 -29 -49 -273 -642 -404
-980 l-62 -158 -5 418 c-5 400 -7 422 -28 478 -54 147 -145 217 -280 217 -114
0 -201 -41 -289 -135 -34 -36 -77 -94 -97 -128 -37 -67 -221 -466 -329 -712
l-64 -148 1 548 1 549 -23 50 c-25 55 -91 128 -137 152 -36 19 -192 28 -280
16 l-60 -8 3 -115 c1 -63 7 -439 12 -835 6 -396 15 -756 21 -801 7 -50 21
-101 37 -134 68 -135 275 -190 436 -117 72 33 182 138 230 219 38 64 146 301
286 626 l87 203 6 -378 c5 -264 11 -398 21 -444 39 -183 128 -254 317 -254 90
0 99 2 171 38 90 44 153 108 215 218 50 88 777 1707 785 1749 8 40 -289 65
-386 33z"/>
<path d="M5915 2379 c-349 -28 -533 -179 -610 -502 -54 -225 -303 -1473 -295
-1480 4 -5 88 -7 186 -5 208 4 240 14 312 92 56 61 67 88 103 259 24 110 79
400 79 415 0 1 171 2 380 2 l380 0 5 23 c9 38 85 408 85 413 0 2 -169 4 -375
4 -328 0 -375 2 -375 15 0 30 41 197 54 223 8 15 26 38 41 52 l27 25 378 5
c208 3 382 8 386 12 10 11 95 439 88 449 -6 11 -710 9 -849 -2z"/>
<path d="M6965 2381 c-29 -6 -30 -10 -61 -136 -28 -116 -93 -421 -230 -1075
-24 -118 -49 -262 -55 -319 -22 -217 28 -330 180 -400 104 -48 234 -60 636
-61 l330 0 19 103 c10 56 29 148 42 204 34 146 36 139 -43 146 -36 4 -134 4
-217 1 -199 -8 -364 6 -383 32 -21 28 -15 67 103 621 119 561 127 627 86 718
-29 63 -64 100 -125 131 -66 34 -206 52 -282 35z"/>
</g>
</svg>
